<svg width="84" height="23" viewBox="0 0 84 23" fill="none" xmlns="http://www.w3.org/2000/svg">
<path d="M54.804 11.6H58.296V12.8H56.124V15.14H57.828V16.34H56.124V20H54.804V11.6Z" fill="black"/>
<path d="M58.929 11.6H60.249V20H58.929V11.6Z" fill="black"/>
<path d="M62.2696 12.8H60.8896V11.6H64.9696V12.8H63.5896V20H62.2696V12.8Z" fill="black"/>
<path d="M65.6087 11.6H67.2647L68.5487 16.628H68.5727V11.6H69.7487V20H68.3927L66.8087 13.868H66.7847V20H65.6087V11.6Z" fill="black"/>
<path d="M70.7298 11.6H74.3298V12.8H72.0498V15.02H73.8618V16.22H72.0498V18.8H74.3298V20H70.7298V11.6Z" fill="black"/>
<path d="M76.8286 20.12C76.1886 20.12 75.7046 19.94 75.3766 19.58C75.0486 19.212 74.8846 18.688 74.8846 18.008V17.528H76.1326V18.104C76.1326 18.648 76.3606 18.92 76.8166 18.92C77.0406 18.92 77.2086 18.856 77.3206 18.728C77.4406 18.592 77.5006 18.376 77.5006 18.08C77.5006 17.728 77.4206 17.42 77.2606 17.156C77.1006 16.884 76.8046 16.56 76.3726 16.184C75.8286 15.704 75.4486 15.272 75.2326 14.888C75.0166 14.496 74.9086 14.056 74.9086 13.568C74.9086 12.904 75.0766 12.392 75.4126 12.032C75.7486 11.664 76.2366 11.48 76.8766 11.48C77.5086 11.48 77.9846 11.664 78.3046 12.032C78.6326 12.392 78.7966 12.912 78.7966 13.592V13.94H77.5486V13.508C77.5486 13.22 77.4926 13.012 77.3806 12.884C77.2686 12.748 77.1046 12.68 76.8886 12.68C76.4486 12.68 76.2286 12.948 76.2286 13.484C76.2286 13.788 76.3086 14.072 76.4686 14.336C76.6366 14.6 76.9366 14.92 77.3686 15.296C77.9206 15.776 78.3006 16.212 78.5086 16.604C78.7166 16.996 78.8206 17.456 78.8206 17.984C78.8206 18.672 78.6486 19.2 78.3046 19.568C77.9686 19.936 77.4766 20.12 76.8286 20.12Z" fill="black"/>
<path d="M81.2934 20.12C80.6534 20.12 80.1694 19.94 79.8414 19.58C79.5134 19.212 79.3494 18.688 79.3494 18.008V17.528H80.5974V18.104C80.5974 18.648 80.8254 18.92 81.2814 18.92C81.5054 18.92 81.6734 18.856 81.7854 18.728C81.9054 18.592 81.9654 18.376 81.9654 18.08C81.9654 17.728 81.8854 17.42 81.7254 17.156C81.5654 16.884 81.2694 16.56 80.8374 16.184C80.2934 15.704 79.9134 15.272 79.6974 14.888C79.4814 14.496 79.3734 14.056 79.3734 13.568C79.3734 12.904 79.5414 12.392 79.8774 12.032C80.2134 11.664 80.7014 11.48 81.3414 11.48C81.9734 11.48 82.4494 11.664 82.7694 12.032C83.0974 12.392 83.2614 12.912 83.2614 13.592V13.94H82.0134V13.508C82.0134 13.22 81.9574 13.012 81.8454 12.884C81.7334 12.748 81.5694 12.68 81.3534 12.68C80.9134 12.68 80.6934 12.948 80.6934 13.484C80.6934 13.788 80.7734 14.072 80.9334 14.336C81.1014 14.6 81.4014 14.92 81.8334 15.296C82.3854 15.776 82.7654 16.212 82.9734 16.604C83.1814 16.996 83.2854 17.456 83.2854 17.984C83.2854 18.672 83.1134 19.2 82.7694 19.568C82.4334 19.936 81.9414 20.12 81.2934 20.12Z" fill="black"/>
<path d="M13.632 14.384C13.632 16.08 12.928 17.504 11.52 18.656C10.128 19.792 8.344 20.36 6.168 20.36C4.968 20.36 4.056 20.184 3.432 19.832C3.368 19.8 3.296 19.784 3.216 19.784C3.136 19.784 2.84 19.872 2.328 20.048C1.816 20.224 1.296 20.312 0.768 20.312C0.256 20.312 0 20.16 0 19.856C0 19.44 0.504 18.36 1.512 16.616C2.52 14.856 3.416 13.672 4.2 13.064C4.536 12.808 4.864 12.68 5.184 12.68C5.504 12.68 5.664 12.768 5.664 12.944C5.664 12.976 5.552 13.176 5.328 13.544C5.12 13.896 4.904 14.368 4.68 14.96C4.472 15.552 4.368 16.064 4.368 16.496C4.368 16.912 4.408 17.264 4.488 17.552C4.584 17.84 4.808 18.136 5.16 18.44C5.528 18.728 5.968 18.872 6.48 18.872C7.008 18.872 7.496 18.808 7.944 18.68C8.408 18.552 8.864 18.352 9.312 18.08C9.76 17.808 10.128 17.408 10.416 16.88C10.704 16.352 10.848 15.744 10.848 15.056C10.848 14.352 10.632 13.64 10.2 12.92C9.768 12.2 9.296 11.592 8.784 11.096C8.272 10.584 7.8 10.008 7.368 9.368C6.936 8.712 6.72 8.08 6.72 7.472C6.72 6.848 6.88 6.272 7.2 5.744C7.536 5.216 7.944 4.8 8.424 4.496C8.92 4.176 9.48 3.912 10.104 3.704C11.16 3.352 12.096 3.176 12.912 3.176C13.728 3.176 14.328 3.216 14.712 3.296C15.112 3.36 15.408 3.424 15.6 3.488C15.808 3.552 15.936 3.584 15.984 3.584C16.032 3.584 16.096 3.56 16.176 3.512C16.656 3.24 17.176 3.104 17.736 3.104C18.296 3.104 18.576 3.24 18.576 3.512C18.576 3.96 18.04 4.968 16.968 6.536C15.912 8.088 15.12 8.864 14.592 8.864C14.16 8.864 13.944 8.768 13.944 8.576C13.944 8.544 14 8.432 14.112 8.24C14.464 7.6 14.64 6.872 14.64 6.056C14.64 5.608 14.448 5.264 14.064 5.024C13.68 4.768 13.28 4.64 12.864 4.64C12.464 4.64 12.048 4.704 11.616 4.832C11.2 4.96 10.776 5.216 10.344 5.6C9.928 5.984 9.72 6.448 9.72 6.992C9.72 7.52 9.92 8.08 10.32 8.672C10.736 9.248 11.184 9.784 11.664 10.28C12.16 10.76 12.608 11.376 13.008 12.128C13.424 12.864 13.632 13.616 13.632 14.384Z" fill="black"/>
<path d="M26.0717 4.664L27.2477 4.616C27.4077 4.616 27.4877 4.648 27.4877 4.712C27.4877 4.776 27.4717 4.856 27.4397 4.952C27.4077 5.048 27.3357 5.168 27.2237 5.312C27.1277 5.456 27.0077 5.584 26.8637 5.696C26.4797 6 25.9997 6.152 25.4237 6.152C24.8637 6.152 24.4477 6.168 24.1757 6.2C23.9197 6.232 23.6957 6.312 23.5037 6.44C23.3117 6.568 23.1837 6.664 23.1197 6.728C23.0557 6.792 22.9437 6.952 22.7837 7.208C22.6237 7.464 22.5117 7.64 22.4477 7.736C21.5997 8.92 20.2237 11.152 18.3197 14.432C16.4317 17.712 15.2557 20.248 14.7917 22.04C14.7437 22.2 14.5917 22.28 14.3357 22.28C14.0957 22.28 13.7597 22.072 13.3277 21.656C12.8957 21.24 12.6797 20.816 12.6797 20.384C12.6797 19.952 13.3277 18.664 14.6237 16.52C15.9357 14.376 17.2477 12.272 18.5597 10.208C19.8717 8.128 20.5277 6.976 20.5277 6.752C20.5277 6.512 20.4317 6.368 20.2397 6.32C20.0477 6.256 19.7117 6.224 19.2317 6.224H18.4397C18.2317 6.224 18.1277 6.128 18.1277 5.936C18.1277 5.744 18.2157 5.544 18.3917 5.336C18.5837 5.112 18.8637 4.92 19.2317 4.76C19.6157 4.6 19.9997 4.44 20.3837 4.28C20.7837 4.12 21.2957 3.76 21.9197 3.2C22.5597 2.64 23.1997 1.92 23.8397 1.04C24.2397 0.495999 24.9277 0.223999 25.9037 0.223999C26.2397 0.223999 26.4077 0.327999 26.4077 0.535999C26.4077 0.664 26.0477 1.248 25.3277 2.288C24.6077 3.328 24.2477 3.984 24.2477 4.256C24.2477 4.512 24.4877 4.64 24.9677 4.64C25.1597 4.656 25.5277 4.664 26.0717 4.664Z" fill="black"/>
<path d="M26.6468 16.952C26.3428 16.952 26.1108 16.8 25.9508 16.496C25.7908 16.176 25.7108 15.872 25.7108 15.584C25.7108 15.28 25.8068 14.936 25.9988 14.552C25.9988 14.344 25.9188 14.24 25.7588 14.24C25.1348 14.24 24.4227 14.616 23.6227 15.368C22.8228 16.104 22.1508 16.872 21.6068 17.672C21.0627 18.456 20.5667 19.248 20.1187 20.048C19.8468 20.528 19.2867 20.768 18.4387 20.768C18.0068 20.768 17.7908 20.672 17.7908 20.48C17.7908 20.048 18.5747 18.44 20.1427 15.656C21.7267 12.856 22.7747 11.36 23.2868 11.168C23.6388 10.992 24.0308 10.904 24.4627 10.904C24.9107 10.904 25.1348 11 25.1348 11.192C25.1348 11.368 24.9508 11.72 24.5828 12.248C24.2148 12.776 24.0308 13.112 24.0308 13.256C24.0308 13.4 24.0868 13.472 24.1987 13.472C24.2627 13.472 24.4387 13.376 24.7267 13.184C25.4307 12.656 26.2948 12.112 27.3188 11.552L27.5347 11.264C27.9188 10.784 28.4707 10.544 29.1908 10.544C29.9268 10.544 30.2948 10.688 30.2948 10.976C30.2627 11.056 30.1828 11.184 30.0548 11.36C28.7908 13.088 27.7268 14.896 26.8628 16.784C26.7988 16.896 26.7268 16.952 26.6468 16.952Z" fill="black"/>
<path d="M28.7822 21.224C28.5582 21.224 28.3102 21.08 28.0382 20.792C27.7662 20.52 27.6302 20.184 27.6302 19.784C27.6302 19.56 28.1502 18.432 29.1902 16.4C30.2462 14.352 30.7902 12.968 30.8222 12.248C30.8222 12.024 30.9662 11.816 31.2542 11.624C31.7662 11.32 32.5262 11.168 33.5342 11.168C33.7262 11.168 33.9262 11.208 34.1342 11.288C34.3582 11.352 34.4702 11.448 34.4702 11.576C34.4702 11.64 34.4462 11.696 34.3982 11.744C33.7902 12.512 32.9022 13.896 31.7342 15.896C30.5662 17.896 29.6862 19.52 29.0942 20.768C29.0142 21.072 28.9102 21.224 28.7822 21.224ZM34.0382 9.824C33.3342 9.824 32.9662 9.544 32.9342 8.984V8.96C32.9342 8.48 33.1662 8.088 33.6302 7.784C34.1102 7.48 34.5822 7.328 35.0462 7.328C35.7502 7.328 36.1182 7.608 36.1502 8.168C36.1502 8.648 35.9182 9.048 35.4542 9.368C34.9902 9.672 34.5182 9.824 34.0382 9.824Z" fill="black"/>
<path d="M33.8955 21.056C33.5755 21.056 33.3435 20.936 33.1995 20.696C33.0715 20.472 33.0075 20.232 33.0075 19.976C33.0075 19 33.2155 17.848 33.6315 16.52C34.0475 15.192 34.4635 14.104 34.8795 13.256L35.5035 11.984C35.4395 11.984 35.4635 11.928 35.5755 11.816C35.7035 11.688 35.8235 11.584 35.9355 11.504C36.2555 11.328 36.5995 11.24 36.9675 11.24C37.3515 11.24 37.5435 11.304 37.5435 11.432C37.5435 11.464 37.4715 11.616 37.3275 11.888C37.1835 12.16 36.8955 12.96 36.4635 14.288C36.0475 15.616 35.8395 16.608 35.8395 17.264C35.8395 17.92 35.9995 18.248 36.3195 18.248C37.0395 18.248 37.8955 17.56 38.8875 16.184C39.8955 14.808 40.3995 13.72 40.3995 12.92C39.9835 12.76 39.7755 12.488 39.7755 12.104C39.7755 11.704 39.9275 11.304 40.2315 10.904C40.5515 10.488 40.7995 10.28 40.9755 10.28C40.9915 10.28 41.1115 10.32 41.3355 10.4C41.5755 10.464 41.8955 10.496 42.2955 10.496C42.7115 10.496 43.0795 10.448 43.3995 10.352C43.7195 10.256 43.9595 10.168 44.1195 10.088C44.2955 9.992 44.4075 9.944 44.4555 9.944C44.5835 9.944 44.6475 10.024 44.6475 10.184C44.6475 10.264 44.5915 10.448 44.4795 10.736C44.3675 11.024 44.2555 11.264 44.1435 11.456C43.8235 11.968 43.3915 12.328 42.8475 12.536C42.7195 12.6 42.6555 12.672 42.6555 12.752C42.6555 13.152 42.5355 13.568 42.2955 14C41.5755 15.392 40.2555 16.92 38.3355 18.584C36.4315 20.232 34.9515 21.056 33.8955 21.056Z" fill="black"/>
<path d="M44.8059 21.368C43.8779 21.368 43.1979 21.088 42.7659 20.528C42.3339 19.984 42.1179 19.312 42.1179 18.512C42.1179 17.696 42.2939 16.848 42.6459 15.968C42.9979 15.072 43.4779 14.208 44.0859 13.376C44.7099 12.544 45.5179 11.848 46.5099 11.288C47.5179 10.712 48.5979 10.424 49.7499 10.424C50.2779 10.424 50.6779 10.592 50.9499 10.928C51.2219 11.248 51.3579 11.632 51.3579 12.08C51.3579 13.008 51.0299 13.872 50.3739 14.672C49.7179 15.472 48.9899 16.08 48.1899 16.496C47.3899 16.912 46.6779 17.152 46.0539 17.216C45.4459 17.264 45.0379 17.376 44.8299 17.552C44.6219 17.728 44.5179 18.08 44.5179 18.608C44.5179 19.136 44.6379 19.536 44.8779 19.808C45.1179 20.08 45.3579 20.264 45.5979 20.36C45.8379 20.456 45.9579 20.552 45.9579 20.648C45.9579 20.872 45.8379 21.048 45.5979 21.176C45.3579 21.304 45.0939 21.368 44.8059 21.368ZM49.0299 12.68C49.0299 12.184 48.8059 11.936 48.3579 11.936C47.7179 11.936 47.0059 12.384 46.2219 13.28C45.4539 14.176 45.0699 14.984 45.0699 15.704C45.0699 15.88 45.2059 15.968 45.4779 15.968C46.1339 15.968 46.8859 15.632 47.7339 14.96C48.5979 14.288 49.0299 13.528 49.0299 12.68Z" fill="black"/>
</svg>
