<svg width="52" height="31" viewBox="0 0 52 31" fill="none" xmlns="http://www.w3.org/2000/svg">
<path d="M11.116 22.376H14.608V23.576H12.436V25.916H14.14V27.116H12.436V30.776H11.116V22.376Z" fill="#C1CED7"/>
<path d="M15.241 22.376H16.561V30.776H15.241V22.376Z" fill="#C1CED7"/>
<path d="M18.5816 23.576H17.2016V22.376H21.2816V23.576H19.9016V30.776H18.5816V23.576Z" fill="#C1CED7"/>
<path d="M21.9207 22.376H23.5767L24.8607 27.404H24.8847V22.376H26.0607V30.776H24.7047L23.1207 24.644H23.0967V30.776H21.9207V22.376Z" fill="#C1CED7"/>
<path d="M27.0418 22.376H30.6418V23.576H28.3618V25.796H30.1738V26.996H28.3618V29.576H30.6418V30.776H27.0418V22.376Z" fill="#C1CED7"/>
<path d="M33.1406 30.896C32.5006 30.896 32.0166 30.716 31.6886 30.356C31.3606 29.988 31.1966 29.464 31.1966 28.784V28.304H32.4446V28.88C32.4446 29.424 32.6726 29.696 33.1286 29.696C33.3526 29.696 33.5206 29.632 33.6326 29.504C33.7526 29.368 33.8126 29.152 33.8126 28.856C33.8126 28.504 33.7326 28.196 33.5726 27.932C33.4126 27.66 33.1166 27.336 32.6846 26.96C32.1406 26.48 31.7606 26.048 31.5446 25.664C31.3286 25.272 31.2206 24.832 31.2206 24.344C31.2206 23.68 31.3886 23.168 31.7246 22.808C32.0606 22.44 32.5486 22.256 33.1886 22.256C33.8206 22.256 34.2966 22.44 34.6166 22.808C34.9446 23.168 35.1086 23.688 35.1086 24.368V24.716H33.8606V24.284C33.8606 23.996 33.8046 23.788 33.6926 23.66C33.5806 23.524 33.4166 23.456 33.2006 23.456C32.7606 23.456 32.5406 23.724 32.5406 24.26C32.5406 24.564 32.6206 24.848 32.7806 25.112C32.9486 25.376 33.2486 25.696 33.6806 26.072C34.2326 26.552 34.6126 26.988 34.8206 27.38C35.0286 27.772 35.1326 28.232 35.1326 28.76C35.1326 29.448 34.9606 29.976 34.6166 30.344C34.2806 30.712 33.7886 30.896 33.1406 30.896Z" fill="#C1CED7"/>
<path d="M37.6054 30.896C36.9654 30.896 36.4814 30.716 36.1534 30.356C35.8254 29.988 35.6614 29.464 35.6614 28.784V28.304H36.9094V28.88C36.9094 29.424 37.1374 29.696 37.5934 29.696C37.8174 29.696 37.9854 29.632 38.0974 29.504C38.2174 29.368 38.2774 29.152 38.2774 28.856C38.2774 28.504 38.1974 28.196 38.0374 27.932C37.8774 27.66 37.5814 27.336 37.1494 26.96C36.6054 26.48 36.2254 26.048 36.0094 25.664C35.7934 25.272 35.6854 24.832 35.6854 24.344C35.6854 23.68 35.8534 23.168 36.1894 22.808C36.5254 22.44 37.0134 22.256 37.6534 22.256C38.2854 22.256 38.7614 22.44 39.0814 22.808C39.4094 23.168 39.5734 23.688 39.5734 24.368V24.716H38.3254V24.284C38.3254 23.996 38.2694 23.788 38.1574 23.66C38.0454 23.524 37.8814 23.456 37.6654 23.456C37.2254 23.456 37.0054 23.724 37.0054 24.26C37.0054 24.564 37.0854 24.848 37.2454 25.112C37.4134 25.376 37.7134 25.696 38.1454 26.072C38.6974 26.552 39.0774 26.988 39.2854 27.38C39.4934 27.772 39.5974 28.232 39.5974 28.76C39.5974 29.448 39.4254 29.976 39.0814 30.344C38.7454 30.712 38.2534 30.896 37.6054 30.896Z" fill="#C1CED7"/>
<path d="M13.944 14.16C13.944 15.856 13.24 17.28 11.832 18.432C10.44 19.568 8.65601 20.136 6.48001 20.136C5.28001 20.136 4.36801 19.96 3.74401 19.608C3.68001 19.576 3.60801 19.56 3.52801 19.56C3.44801 19.56 3.15201 19.648 2.64001 19.824C2.12801 20 1.60801 20.088 1.08001 20.088C0.568012 20.088 0.312012 19.936 0.312012 19.632C0.312012 19.216 0.816012 18.136 1.82401 16.392C2.83201 14.632 3.72801 13.448 4.51201 12.84C4.84801 12.584 5.17601 12.456 5.49601 12.456C5.81601 12.456 5.97601 12.544 5.97601 12.72C5.97601 12.752 5.86401 12.952 5.64001 13.32C5.43201 13.672 5.21601 14.144 4.99201 14.736C4.78401 15.328 4.68001 15.84 4.68001 16.272C4.68001 16.688 4.72001 17.04 4.80001 17.328C4.89601 17.616 5.12001 17.912 5.47201 18.216C5.84001 18.504 6.28001 18.648 6.79201 18.648C7.32001 18.648 7.80801 18.584 8.25601 18.456C8.72001 18.328 9.17601 18.128 9.62401 17.856C10.072 17.584 10.44 17.184 10.728 16.656C11.016 16.128 11.16 15.52 11.16 14.832C11.16 14.128 10.944 13.416 10.512 12.696C10.08 11.976 9.60801 11.368 9.09601 10.872C8.58401 10.36 8.11201 9.784 7.68001 9.144C7.24801 8.488 7.03201 7.856 7.03201 7.248C7.03201 6.624 7.19201 6.048 7.51201 5.52C7.84801 4.992 8.25601 4.576 8.73601 4.272C9.23201 3.952 9.79201 3.688 10.416 3.48C11.472 3.128 12.408 2.952 13.224 2.952C14.04 2.952 14.64 2.992 15.024 3.072C15.424 3.136 15.72 3.2 15.912 3.264C16.12 3.328 16.248 3.36 16.296 3.36C16.344 3.36 16.408 3.336 16.488 3.288C16.968 3.016 17.488 2.88 18.048 2.88C18.608 2.88 18.888 3.016 18.888 3.288C18.888 3.736 18.352 4.744 17.28 6.312C16.224 7.864 15.432 8.64 14.904 8.64C14.472 8.64 14.256 8.544 14.256 8.352C14.256 8.32 14.312 8.208 14.424 8.016C14.776 7.376 14.952 6.648 14.952 5.832C14.952 5.384 14.76 5.04 14.376 4.8C13.992 4.544 13.592 4.416 13.176 4.416C12.776 4.416 12.36 4.48 11.928 4.608C11.512 4.736 11.088 4.992 10.656 5.376C10.24 5.76 10.032 6.224 10.032 6.768C10.032 7.296 10.232 7.856 10.632 8.448C11.048 9.024 11.496 9.56 11.976 10.056C12.472 10.536 12.92 11.152 13.32 11.904C13.736 12.64 13.944 13.392 13.944 14.16Z" fill="white"/>
<path d="M26.3837 4.44L27.5597 4.392C27.7197 4.392 27.7997 4.424 27.7997 4.488C27.7997 4.552 27.7837 4.632 27.7517 4.728C27.7197 4.824 27.6477 4.944 27.5357 5.088C27.4397 5.232 27.3197 5.36 27.1757 5.472C26.7917 5.776 26.3117 5.928 25.7357 5.928C25.1757 5.928 24.7597 5.944 24.4877 5.976C24.2317 6.008 24.0077 6.088 23.8157 6.216C23.6237 6.344 23.4957 6.44 23.4317 6.504C23.3677 6.568 23.2557 6.728 23.0957 6.984C22.9357 7.24 22.8237 7.416 22.7597 7.512C21.9117 8.696 20.5357 10.928 18.6317 14.208C16.7437 17.488 15.5677 20.024 15.1037 21.816C15.0557 21.976 14.9037 22.056 14.6477 22.056C14.4077 22.056 14.0717 21.848 13.6397 21.432C13.2077 21.016 12.9917 20.592 12.9917 20.16C12.9917 19.728 13.6397 18.44 14.9357 16.296C16.2477 14.152 17.5597 12.048 18.8717 9.984C20.1837 7.904 20.8397 6.752 20.8397 6.528C20.8397 6.288 20.7437 6.144 20.5517 6.096C20.3597 6.032 20.0237 6 19.5437 6H18.7517C18.5437 6 18.4397 5.904 18.4397 5.712C18.4397 5.52 18.5277 5.32 18.7037 5.112C18.8957 4.888 19.1757 4.696 19.5437 4.536C19.9277 4.376 20.3117 4.216 20.6957 4.056C21.0957 3.896 21.6077 3.536 22.2317 2.976C22.8717 2.416 23.5117 1.696 24.1517 0.816001C24.5517 0.272 25.2397 0 26.2157 0C26.5517 0 26.7197 0.104 26.7197 0.312C26.7197 0.440001 26.3597 1.024 25.6397 2.064C24.9197 3.104 24.5597 3.76 24.5597 4.032C24.5597 4.288 24.7997 4.416 25.2797 4.416C25.4717 4.432 25.8397 4.44 26.3837 4.44Z" fill="white"/>
<path d="M26.9588 16.728C26.6548 16.728 26.4228 16.576 26.2628 16.272C26.1028 15.952 26.0228 15.648 26.0228 15.36C26.0228 15.056 26.1188 14.712 26.3108 14.328C26.3108 14.12 26.2308 14.016 26.0708 14.016C25.4468 14.016 24.7348 14.392 23.9348 15.144C23.1348 15.88 22.4628 16.648 21.9188 17.448C21.3748 18.232 20.8788 19.024 20.4308 19.824C20.1588 20.304 19.5988 20.544 18.7508 20.544C18.3188 20.544 18.1028 20.448 18.1028 20.256C18.1028 19.824 18.8868 18.216 20.4548 15.432C22.0388 12.632 23.0868 11.136 23.5988 10.944C23.9508 10.768 24.3428 10.68 24.7748 10.68C25.2228 10.68 25.4468 10.776 25.4468 10.968C25.4468 11.144 25.2628 11.496 24.8948 12.024C24.5268 12.552 24.3428 12.888 24.3428 13.032C24.3428 13.176 24.3988 13.248 24.5108 13.248C24.5748 13.248 24.7508 13.152 25.0388 12.96C25.7428 12.432 26.6068 11.888 27.6308 11.328L27.8468 11.04C28.2308 10.56 28.7828 10.32 29.5028 10.32C30.2388 10.32 30.6068 10.464 30.6068 10.752C30.5748 10.832 30.4948 10.96 30.3668 11.136C29.1028 12.864 28.0388 14.672 27.1748 16.56C27.1108 16.672 27.0388 16.728 26.9588 16.728Z" fill="white"/>
<path d="M29.0942 21C28.8702 21 28.6222 20.856 28.3502 20.568C28.0782 20.296 27.9422 19.96 27.9422 19.56C27.9422 19.336 28.4622 18.208 29.5022 16.176C30.5582 14.128 31.1022 12.744 31.1342 12.024C31.1342 11.8 31.2782 11.592 31.5662 11.4C32.0782 11.096 32.8382 10.944 33.8462 10.944C34.0382 10.944 34.2382 10.984 34.4462 11.064C34.6702 11.128 34.7822 11.224 34.7822 11.352C34.7822 11.416 34.7582 11.472 34.7102 11.52C34.1022 12.288 33.2142 13.672 32.0462 15.672C30.8782 17.672 29.9982 19.296 29.4062 20.544C29.3262 20.848 29.2222 21 29.0942 21ZM34.3502 9.6C33.6462 9.6 33.2782 9.32 33.2462 8.76V8.736C33.2462 8.256 33.4782 7.864 33.9422 7.56C34.4222 7.256 34.8942 7.104 35.3582 7.104C36.0622 7.104 36.4302 7.384 36.4622 7.944C36.4622 8.424 36.2302 8.824 35.7662 9.144C35.3022 9.448 34.8302 9.6 34.3502 9.6Z" fill="white"/>
<path d="M34.2075 20.832C33.8875 20.832 33.6555 20.712 33.5115 20.472C33.3835 20.248 33.3195 20.008 33.3195 19.752C33.3195 18.776 33.5275 17.624 33.9435 16.296C34.3595 14.968 34.7755 13.88 35.1915 13.032L35.8155 11.76C35.7515 11.76 35.7755 11.704 35.8875 11.592C36.0155 11.464 36.1355 11.36 36.2475 11.28C36.5675 11.104 36.9115 11.016 37.2795 11.016C37.6635 11.016 37.8555 11.08 37.8555 11.208C37.8555 11.24 37.7835 11.392 37.6395 11.664C37.4955 11.936 37.2075 12.736 36.7755 14.064C36.3595 15.392 36.1515 16.384 36.1515 17.04C36.1515 17.696 36.3115 18.024 36.6315 18.024C37.3515 18.024 38.2075 17.336 39.1995 15.96C40.2075 14.584 40.7115 13.496 40.7115 12.696C40.2955 12.536 40.0875 12.264 40.0875 11.88C40.0875 11.48 40.2395 11.08 40.5435 10.68C40.8635 10.264 41.1115 10.056 41.2875 10.056C41.3035 10.056 41.4235 10.096 41.6475 10.176C41.8875 10.24 42.2075 10.272 42.6075 10.272C43.0235 10.272 43.3915 10.224 43.7115 10.128C44.0315 10.032 44.2715 9.944 44.4315 9.864C44.6075 9.768 44.7195 9.72 44.7675 9.72C44.8955 9.72 44.9595 9.8 44.9595 9.96C44.9595 10.04 44.9035 10.224 44.7915 10.512C44.6795 10.8 44.5675 11.04 44.4555 11.232C44.1355 11.744 43.7035 12.104 43.1595 12.312C43.0315 12.376 42.9675 12.448 42.9675 12.528C42.9675 12.928 42.8475 13.344 42.6075 13.776C41.8875 15.168 40.5675 16.696 38.6475 18.36C36.7435 20.008 35.2635 20.832 34.2075 20.832Z" fill="white"/>
<path d="M45.118 21.144C44.1899 21.144 43.5099 20.864 43.0779 20.304C42.646 19.76 42.43 19.088 42.43 18.288C42.43 17.472 42.6059 16.624 42.958 15.744C43.31 14.848 43.7899 13.984 44.3979 13.152C45.0219 12.32 45.8299 11.624 46.8219 11.064C47.8299 10.488 48.91 10.2 50.062 10.2C50.59 10.2 50.99 10.368 51.262 10.704C51.534 11.024 51.6699 11.408 51.6699 11.856C51.6699 12.784 51.3419 13.648 50.686 14.448C50.03 15.248 49.3019 15.856 48.5019 16.272C47.702 16.688 46.9899 16.928 46.3659 16.992C45.7579 17.04 45.3499 17.152 45.1419 17.328C44.9339 17.504 44.8299 17.856 44.8299 18.384C44.8299 18.912 44.9499 19.312 45.1899 19.584C45.43 19.856 45.6699 20.04 45.91 20.136C46.15 20.232 46.27 20.328 46.27 20.424C46.27 20.648 46.15 20.824 45.91 20.952C45.6699 21.08 45.406 21.144 45.118 21.144ZM49.3419 12.456C49.3419 11.96 49.118 11.712 48.6699 11.712C48.0299 11.712 47.318 12.16 46.534 13.056C45.7659 13.952 45.382 14.76 45.382 15.48C45.382 15.656 45.5179 15.744 45.7899 15.744C46.4459 15.744 47.1979 15.408 48.0459 14.736C48.91 14.064 49.3419 13.304 49.3419 12.456Z" fill="white"/>
</svg>
